<svg xmlns="http://www.w3.org/2000/svg" width="160" height="147" viewBox="0 0 160 147" fill="none">
    <g opacity="0.1">
    <path d="M120.333 0.14941L28.0677 8.95786C11.048 10.6001 -1.49281 25.8283 0.149441 42.9973L4.77761 91.3691C6.41986 108.24 21.2001 120.631 38.0706 119.437L46.5804 146.31L77.0368 115.854L130.933 110.479C148.102 108.837 160.642 93.6086 159 76.5888L154.372 28.217C152.58 11.048 137.352 -1.49284 120.333 0.14941Z" fill="#696969"/>
    </g>
    <g opacity="0.15">
    <path d="M48.7219 66.869C44.5332 67.2512 40.364 65.9564 37.1289 63.2684C33.8938 60.5805 31.857 56.7191 31.4654 52.5313C31.4175 52.0127 31.4722 51.4897 31.6264 50.9922C31.7806 50.4947 32.0313 50.0325 32.3642 49.6319C32.697 49.2313 33.1055 48.9002 33.5663 48.6574C34.0271 48.4147 34.5312 48.2651 35.0498 48.2172C35.5685 48.1693 36.0915 48.224 36.5889 48.3782C37.0864 48.5324 37.5487 48.7831 37.9493 49.1159C38.3499 49.4488 38.681 49.8573 38.9237 50.3181C39.1664 50.7789 39.316 51.283 39.364 51.8016C39.5575 53.8964 40.5752 55.8286 42.1933 57.173C43.8114 58.5174 45.8973 59.164 47.9922 58.9704C50.087 58.7769 52.0191 57.7592 53.3635 56.1411C54.708 54.5229 55.3545 52.4371 55.161 50.3422C55.1131 49.8236 55.1678 49.3006 55.322 48.8031C55.4762 48.3057 55.7269 47.8434 56.0597 47.4428C56.3926 47.0422 56.8011 46.7111 57.2619 46.4684C57.7227 46.2256 58.2268 46.076 58.7454 46.0281C59.264 45.9802 59.787 46.0349 60.2845 46.1891C60.782 46.3433 61.2442 46.594 61.6448 46.9269C62.0454 47.2597 62.3766 47.6682 62.6193 48.129C62.862 48.5898 63.0116 49.0939 63.0595 49.6125C63.4418 53.8012 62.1469 57.9704 59.459 61.2055C56.7711 64.4406 52.9096 66.4774 48.7219 66.869V66.869Z" fill="#4D4D4D"/>
    <path d="M111.948 61.0286C107.76 61.4109 103.591 60.116 100.355 57.4281C97.1203 54.7402 95.0836 50.8787 94.692 46.691C94.6441 46.1723 94.6988 45.6494 94.853 45.1519C95.0072 44.6544 95.2579 44.1922 95.5907 43.7915C95.9236 43.3909 96.3321 43.0598 96.7929 42.8171C97.2537 42.5744 97.7578 42.4248 98.2764 42.3769C98.795 42.3289 99.318 42.3837 99.8155 42.5379C100.313 42.6921 100.775 42.9427 101.176 43.2756C101.576 43.6084 101.908 44.0169 102.15 44.4777C102.393 44.9385 102.543 45.4426 102.591 45.9613C102.784 48.0561 103.802 49.9882 105.42 51.3327C107.038 52.6771 109.124 53.3236 111.219 53.1301C113.314 52.9366 115.246 51.9188 116.59 50.3007C117.935 48.6826 118.581 46.5967 118.388 44.5019C118.291 43.4545 118.614 42.4115 119.286 41.6025C119.959 40.7934 120.925 40.2846 121.972 40.1878C123.019 40.091 124.062 40.4143 124.871 41.0865C125.68 41.7587 126.189 42.7248 126.286 43.7722C126.668 47.9609 125.373 52.1301 122.686 55.3652C119.998 58.6003 116.136 60.6371 111.948 61.0286V61.0286Z" fill="#4D4D4D"/>
    <path d="M71.7376 84.661L92.5444 82.7388C98.0053 82.2343 97.2303 73.7465 91.7603 74.2519L70.9536 76.174C65.4927 76.6785 66.2676 85.1663 71.7376 84.661Z" fill="#4D4D4D"/>
    </g>
    </svg>